<svg width="109" height="41" viewBox="0 0 109 41" fill="none" xmlns="http://www.w3.org/2000/svg">
<g filter="url(#filter0_d)">
<path d="M19.0938 22H16.832V14.1133H8.23047V22H5.98047V4.9375H8.23047V12.2734H16.832V4.9375H19.0938V22ZM25.0558 15.543C25.0558 14.3008 25.298 13.1836 25.7823 12.1914C26.2745 11.1992 26.9542 10.4336 27.8214 9.89453C28.6964 9.35547 29.6925 9.08594 30.8097 9.08594C32.5363 9.08594 33.9308 9.68359 34.9933 10.8789C36.0636 12.0742 36.5988 13.6641 36.5988 15.6484V15.8008C36.5988 17.0352 36.3605 18.1445 35.8839 19.1289C35.4152 20.1055 34.7394 20.8672 33.8566 21.4141C32.9816 21.9609 31.9738 22.2344 30.8331 22.2344C29.1144 22.2344 27.7198 21.6367 26.6495 20.4414C25.587 19.2461 25.0558 17.6641 25.0558 15.6953V15.543ZM27.2355 15.8008C27.2355 17.207 27.5597 18.3359 28.2081 19.1875C28.8644 20.0391 29.7394 20.4648 30.8331 20.4648C31.9347 20.4648 32.8097 20.0352 33.4581 19.1758C34.1066 18.3086 34.4308 17.0977 34.4308 15.543C34.4308 14.1523 34.0988 13.0273 33.4347 12.168C32.7784 11.3008 31.9034 10.8672 30.8097 10.8672C29.7394 10.8672 28.8761 11.293 28.2198 12.1445C27.5636 12.9961 27.2355 14.2148 27.2355 15.8008ZM45.1389 6.25V9.32031H47.5061V10.9961H45.1389V18.8594C45.1389 19.3672 45.2444 19.75 45.4553 20.0078C45.6663 20.2578 46.0256 20.3828 46.5334 20.3828C46.7834 20.3828 47.1272 20.3359 47.5647 20.2422V22C46.9944 22.1562 46.4397 22.2344 45.9006 22.2344C44.9319 22.2344 44.2014 21.9414 43.7092 21.3555C43.217 20.7695 42.9709 19.9375 42.9709 18.8594V10.9961H40.6623V9.32031H42.9709V6.25H45.1389ZM58.1908 22.2344C56.472 22.2344 55.0736 21.6719 53.9955 20.5469C52.9173 19.4141 52.3783 17.9023 52.3783 16.0117V15.6133C52.3783 14.3555 52.6166 13.2344 53.0931 12.25C53.5775 11.2578 54.2494 10.4844 55.1087 9.92969C55.9759 9.36719 56.9134 9.08594 57.9212 9.08594C59.5697 9.08594 60.8509 9.62891 61.765 10.7148C62.6791 11.8008 63.1361 13.3555 63.1361 15.3789V16.2812H54.5462C54.5775 17.5312 54.9408 18.543 55.6361 19.3164C56.3392 20.082 57.2298 20.4648 58.308 20.4648C59.0736 20.4648 59.722 20.3086 60.2533 19.9961C60.7845 19.6836 61.2494 19.2695 61.6478 18.7539L62.972 19.7852C61.9095 21.418 60.3158 22.2344 58.1908 22.2344ZM57.9212 10.8672C57.0462 10.8672 56.3119 11.1875 55.7181 11.8281C55.1244 12.4609 54.7572 13.3516 54.6166 14.5H60.9681V14.3359C60.9056 13.2344 60.6087 12.3828 60.0775 11.7812C59.5462 11.1719 58.8275 10.8672 57.9212 10.8672ZM70.8911 22H68.7231V4H70.8911V22Z" fill="black"/>
<path d="M19.0938 22V23H20.0938V22H19.0938ZM16.832 22H15.832V23H16.832V22ZM16.832 14.1133H17.832V13.1133H16.832V14.1133ZM8.23047 14.1133V13.1133H7.23047V14.1133H8.23047ZM8.23047 22V23H9.23047V22H8.23047ZM5.98047 22H4.98047V23H5.98047V22ZM5.98047 4.9375V3.9375H4.98047V4.9375H5.98047ZM8.23047 4.9375H9.23047V3.9375H8.23047V4.9375ZM8.23047 12.2734H7.23047V13.2734H8.23047V12.2734ZM16.832 12.2734V13.2734H17.832V12.2734H16.832ZM16.832 4.9375V3.9375H15.832V4.9375H16.832ZM19.0938 4.9375H20.0938V3.9375H19.0938V4.9375ZM19.0938 21H16.832V23H19.0938V21ZM17.832 22V14.1133H15.832V22H17.832ZM16.832 13.1133H8.23047V15.1133H16.832V13.1133ZM7.23047 14.1133V22H9.23047V14.1133H7.23047ZM8.23047 21H5.98047V23H8.23047V21ZM6.98047 22V4.9375H4.98047V22H6.98047ZM5.98047 5.9375H8.23047V3.9375H5.98047V5.9375ZM7.23047 4.9375V12.2734H9.23047V4.9375H7.23047ZM8.23047 13.2734H16.832V11.2734H8.23047V13.2734ZM17.832 12.2734V4.9375H15.832V12.2734H17.832ZM16.832 5.9375H19.0938V3.9375H16.832V5.9375ZM18.0938 4.9375V22H20.0938V4.9375H18.0938ZM25.7823 12.1914L24.8865 11.747L24.8837 11.7527L25.7823 12.1914ZM27.8214 9.89453L27.2969 9.04313L27.2935 9.04525L27.8214 9.89453ZM34.9933 10.8789L34.2459 11.5433L34.2483 11.546L34.9933 10.8789ZM35.8839 19.1289L34.9838 18.6932L34.9824 18.6962L35.8839 19.1289ZM33.8566 21.4141L33.3299 20.564L33.3266 20.5661L33.8566 21.4141ZM26.6495 20.4414L25.9021 21.1058L25.9045 21.1085L26.6495 20.4414ZM28.2081 19.1875L27.4125 19.7933L27.416 19.7979L28.2081 19.1875ZM33.4581 19.1758L34.2564 19.7781L34.259 19.7746L33.4581 19.1758ZM33.4347 12.168L32.6372 12.7714L32.6434 12.7794L33.4347 12.168ZM26.0558 15.543C26.0558 14.4337 26.2712 13.4694 26.681 12.6301L24.8837 11.7527C24.3247 12.8977 24.0558 14.1679 24.0558 15.543H26.0558ZM26.6782 12.6358C27.095 11.7955 27.6534 11.1765 28.3493 10.7438L27.2935 9.04525C26.2551 9.69074 25.4541 10.6029 24.8865 11.747L26.6782 12.6358ZM28.3459 10.7459C29.0496 10.3124 29.861 10.0859 30.8097 10.0859V8.08594C29.524 8.08594 28.3432 8.39851 27.2969 9.04313L28.3459 10.7459ZM30.8097 10.0859C32.2762 10.0859 33.3895 10.5799 34.2459 11.5433L35.7407 10.2145C34.4721 8.78733 32.7963 8.08594 30.8097 8.08594V10.0859ZM34.2483 11.546C35.1179 12.5172 35.5988 13.8495 35.5988 15.6484H37.5988C37.5988 13.4787 37.0093 11.6313 35.7383 10.2118L34.2483 11.546ZM35.5988 15.6484V15.8008H37.5988V15.6484H35.5988ZM35.5988 15.8008C35.5988 16.9038 35.3866 17.8612 34.9838 18.6932L36.784 19.5647C37.3343 18.4279 37.5988 17.1666 37.5988 15.8008H35.5988ZM34.9824 18.6962C34.5925 19.5085 34.0433 20.122 33.3299 20.564L34.3832 22.2642C35.4354 21.6123 36.2378 20.7024 36.7854 19.5616L34.9824 18.6962ZM33.3266 20.5661C32.627 21.0033 31.8067 21.2344 30.8331 21.2344V23.2344C32.1408 23.2344 33.3362 22.9186 34.3866 22.2621L33.3266 20.5661ZM30.8331 21.2344C29.3759 21.2344 28.2604 20.7414 27.3945 19.7743L25.9045 21.1085C27.1793 22.5321 28.8528 23.2344 30.8331 23.2344V21.2344ZM27.3969 19.777C26.5325 18.8046 26.0558 17.4782 26.0558 15.6953H24.0558C24.0558 17.85 24.6416 19.6876 25.9021 21.1058L27.3969 19.777ZM26.0558 15.6953V15.543H24.0558V15.6953H26.0558ZM26.2355 15.8008C26.2355 17.3572 26.5952 18.7199 27.4125 19.7933L29.0037 18.5817C28.5242 17.952 28.2355 17.0569 28.2355 15.8008H26.2355ZM27.416 19.7979C28.2654 20.9001 29.4355 21.4648 30.8331 21.4648V19.4648C30.0432 19.4648 29.4633 19.178 29.0002 18.5771L27.416 19.7979ZM30.8331 21.4648C32.2399 21.4648 33.4139 20.8947 34.2564 19.7781L32.6599 18.5735C32.2055 19.1756 31.6295 19.4648 30.8331 19.4648V21.4648ZM34.259 19.7746C35.0822 18.6737 35.4308 17.2226 35.4308 15.543H33.4308C33.4308 16.9727 33.1309 17.9435 32.6573 18.5769L34.259 19.7746ZM35.4308 15.543C35.4308 13.9938 35.0593 12.6349 34.226 11.5565L32.6434 12.7794C33.1382 13.4198 33.4308 14.3109 33.4308 15.543H35.4308ZM34.2321 11.5645C33.3855 10.4459 32.2146 9.86719 30.8097 9.86719V11.8672C31.5923 11.8672 32.1713 12.1557 32.6373 12.7714L34.2321 11.5645ZM30.8097 9.86719C29.4276 9.86719 28.2723 10.4382 27.4278 11.5341L29.0119 12.7549C29.4798 12.1478 30.0512 11.8672 30.8097 11.8672V9.86719ZM27.4278 11.5341C26.586 12.6264 26.2355 14.0947 26.2355 15.8008H28.2355C28.2355 14.335 28.5412 13.3658 29.0119 12.7549L27.4278 11.5341ZM45.1389 6.25H46.1389V5.25H45.1389V6.25ZM45.1389 9.32031H44.1389V10.3203H45.1389V9.32031ZM47.5061 9.32031H48.5061V8.32031H47.5061V9.32031ZM47.5061 10.9961V11.9961H48.5061V10.9961H47.5061ZM45.1389 10.9961V9.99609H44.1389V10.9961H45.1389ZM45.4553 20.0078L44.6814 20.6411L44.6861 20.6469L44.691 20.6527L45.4553 20.0078ZM47.5647 20.2422H48.5647V19.0052L47.3552 19.2644L47.5647 20.2422ZM47.5647 22L47.8289 22.9645L48.5647 22.7629V22H47.5647ZM42.9709 10.9961H43.9709V9.99609H42.9709V10.9961ZM40.6623 10.9961H39.6623V11.9961H40.6623V10.9961ZM40.6623 9.32031V8.32031H39.6623V9.32031H40.6623ZM42.9709 9.32031V10.3203H43.9709V9.32031H42.9709ZM42.9709 6.25V5.25H41.9709V6.25H42.9709ZM44.1389 6.25V9.32031H46.1389V6.25H44.1389ZM45.1389 10.3203H47.5061V8.32031H45.1389V10.3203ZM46.5061 9.32031V10.9961H48.5061V9.32031H46.5061ZM47.5061 9.99609H45.1389V11.9961H47.5061V9.99609ZM44.1389 10.9961V18.8594H46.1389V10.9961H44.1389ZM44.1389 18.8594C44.1389 19.4825 44.2648 20.1319 44.6814 20.6411L46.2293 19.3746C46.2239 19.3681 46.1389 19.2519 46.1389 18.8594H44.1389ZM44.691 20.6527C45.1766 21.2282 45.894 21.3828 46.5334 21.3828V19.3828C46.3563 19.3828 46.2569 19.3603 46.2116 19.3446C46.1734 19.3313 46.1916 19.3297 46.2196 19.3629L44.691 20.6527ZM46.5334 21.3828C46.8884 21.3828 47.3127 21.3189 47.7742 21.22L47.3552 19.2644C46.9417 19.353 46.6785 19.3828 46.5334 19.3828V21.3828ZM46.5647 20.2422V22H48.5647V20.2422H46.5647ZM47.3005 21.0355C46.808 21.1705 46.3422 21.2344 45.9006 21.2344V23.2344C46.5371 23.2344 47.1808 23.142 47.8289 22.9645L47.3005 21.0355ZM45.9006 21.2344C45.1422 21.2344 44.7285 21.0141 44.4749 20.7123L42.9435 21.9987C43.6743 22.8687 44.7215 23.2344 45.9006 23.2344V21.2344ZM44.4749 20.7123C44.1856 20.3679 43.9709 19.7972 43.9709 18.8594H41.9709C41.9709 20.0778 42.2484 21.1712 42.9435 21.9987L44.4749 20.7123ZM43.9709 18.8594V10.9961H41.9709V18.8594H43.9709ZM42.9709 9.99609H40.6623V11.9961H42.9709V9.99609ZM41.6623 10.9961V9.32031H39.6623V10.9961H41.6623ZM40.6623 10.3203H42.9709V8.32031H40.6623V10.3203ZM43.9709 9.32031V6.25H41.9709V9.32031H43.9709ZM42.9709 7.25H45.1389V5.25H42.9709V7.25ZM53.9955 20.5469L53.2711 21.2363L53.2735 21.2388L53.9955 20.5469ZM53.0931 12.25L52.1945 11.8113L52.1931 11.8143L53.0931 12.25ZM55.1087 9.92969L55.6511 10.7699L55.6529 10.7686L55.1087 9.92969ZM63.1361 16.2812V17.2812H64.1361V16.2812H63.1361ZM54.5462 16.2812V15.2812H53.5209L53.5466 16.3062L54.5462 16.2812ZM55.6361 19.3164L54.8924 19.985L54.8996 19.9928L55.6361 19.3164ZM61.6478 18.7539L62.2622 17.9649L61.4703 17.3482L60.8565 18.1425L61.6478 18.7539ZM62.972 19.7852L63.8102 20.3306L64.3112 19.5606L63.5865 18.9962L62.972 19.7852ZM55.7181 11.8281L56.4474 12.5124L56.4516 12.5079L55.7181 11.8281ZM54.6166 14.5L53.624 14.3785L53.4866 15.5H54.6166V14.5ZM60.9681 14.5V15.5H61.9681V14.5H60.9681ZM60.9681 14.3359H61.9681V14.3076L61.9665 14.2793L60.9681 14.3359ZM60.0775 11.7812L59.3237 12.4384L59.3279 12.4432L60.0775 11.7812ZM58.1908 21.2344C56.7136 21.2344 55.5865 20.7618 54.7175 19.855L53.2735 21.2388C54.5607 22.5819 56.2305 23.2344 58.1908 23.2344V21.2344ZM54.7198 19.8575C53.8543 18.948 53.3783 17.7025 53.3783 16.0117H51.3783C51.3783 18.1022 51.9804 19.8801 53.2711 21.2363L54.7198 19.8575ZM53.3783 16.0117V15.6133H51.3783V16.0117H53.3783ZM53.3783 15.6133C53.3783 14.4837 53.5916 13.5153 53.9932 12.6857L52.1931 11.8143C51.6415 12.9535 51.3783 14.2272 51.3783 15.6133H53.3783ZM53.9918 12.6887C54.4028 11.8468 54.957 11.2179 55.6511 10.7699L54.5664 9.0895C53.5418 9.75088 52.7522 10.6688 52.1945 11.8113L53.9918 12.6887ZM55.6529 10.7686C56.3625 10.3084 57.1118 10.0859 57.9212 10.0859V8.08594C56.7151 8.08594 55.5894 8.42597 54.5646 9.09073L55.6529 10.7686ZM57.9212 10.0859C59.3276 10.0859 60.3075 10.5362 60.9999 11.3588L62.5301 10.0709C61.3943 8.7216 59.8118 8.08594 57.9212 8.08594V10.0859ZM60.9999 11.3588C61.709 12.2012 62.1361 13.4925 62.1361 15.3789H64.1361C64.1361 13.2184 63.6491 11.4004 62.5301 10.0709L60.9999 11.3588ZM62.1361 15.3789V16.2812H64.1361V15.3789H62.1361ZM63.1361 15.2812H54.5462V17.2812H63.1361V15.2812ZM53.5466 16.3062C53.5825 17.7441 54.0071 19.0002 54.8924 19.985L56.3798 18.6479C55.8744 18.0858 55.5725 17.3184 55.5459 16.2563L53.5466 16.3062ZM54.8996 19.9928C55.7999 20.9732 56.9616 21.4648 58.308 21.4648V19.4648C57.4981 19.4648 56.8785 19.1909 56.3726 18.64L54.8996 19.9928ZM58.308 21.4648C59.2091 21.4648 60.0422 21.2804 60.7603 20.858L59.7463 19.1342C59.4018 19.3368 58.9381 19.4648 58.308 19.4648V21.4648ZM60.7603 20.858C61.4076 20.4773 61.9673 19.976 62.4391 19.3654L60.8565 18.1425C60.5315 18.5631 60.1615 18.8899 59.7463 19.1342L60.7603 20.858ZM61.0334 19.5429L62.3576 20.5741L63.5865 18.9962L62.2622 17.9649L61.0334 19.5429ZM62.1339 19.2397C61.2749 20.5597 60.014 21.2344 58.1908 21.2344V23.2344C60.6176 23.2344 62.5441 22.2762 63.8102 20.3306L62.1339 19.2397ZM57.9212 9.86719C56.7684 9.86719 55.7681 10.3031 54.9847 11.1484L56.4516 12.5079C56.8557 12.0719 57.3241 11.8672 57.9212 11.8672V9.86719ZM54.9889 11.1439C54.2083 11.9758 53.7819 13.0888 53.624 14.3785L55.6091 14.6215C55.7325 13.6143 56.0405 12.946 56.4474 12.5124L54.9889 11.1439ZM54.6166 15.5H60.9681V13.5H54.6166V15.5ZM61.9681 14.5V14.3359H59.9681V14.5H61.9681ZM61.9665 14.2793C61.896 13.0367 61.5537 11.9422 60.8271 11.1193L59.3279 12.4432C59.6638 12.8235 59.9152 13.4321 59.9697 14.3926L61.9665 14.2793ZM60.8313 11.1241C60.0859 10.2691 59.0774 9.86719 57.9212 9.86719V11.8672C58.5776 11.8672 59.0066 12.0747 59.3237 12.4384L60.8313 11.1241ZM70.8911 22V23H71.8911V22H70.8911ZM68.7231 22H67.7231V23H68.7231V22ZM68.7231 4V3H67.7231V4H68.7231ZM70.8911 4H71.8911V3H70.8911V4ZM70.8911 21H68.7231V23H70.8911V21ZM69.7231 22V4H67.7231V22H69.7231ZM68.7231 5H70.8911V3H68.7231V5ZM69.8911 4V22H71.8911V4H69.8911Z" fill="black"/>
</g>
<path d="M9.592 32.472H8.992V38.328H5.536V22.296H10.168C11.384 22.296 12.352 22.4 13.072 22.608C13.808 22.816 14.456 23.176 15.016 23.688C15.992 24.552 16.48 25.736 16.48 27.24C16.48 29.08 15.936 30.408 14.848 31.224C14.48 31.512 14.048 31.752 13.552 31.944L17.656 37.536L15.064 39.12L10.312 32.448C10.168 32.464 9.928 32.472 9.592 32.472ZM12.304 29.424C12.864 29.04 13.144 28.4 13.144 27.504C13.144 26.592 12.912 25.92 12.448 25.488C12 25.056 11.056 24.84 9.616 24.84H8.992V29.928H9.256C10.84 29.928 11.856 29.76 12.304 29.424ZM24.4332 32.52C24.4652 34.92 25.5212 36.12 27.6012 36.12C28.5772 36.12 29.5452 35.936 30.5052 35.568L31.0812 37.848C29.8492 38.376 28.4812 38.64 26.9772 38.64C23.1852 38.64 21.2892 36.408 21.2892 31.944C21.2892 30.184 21.7612 28.72 22.7052 27.552C23.6492 26.384 25.0092 25.8 26.7852 25.8C28.2092 25.8 29.3052 26.184 30.0732 26.952C30.8572 27.704 31.2492 28.76 31.2492 30.12C31.2492 30.92 31.1452 31.72 30.9372 32.52H24.4332ZM28.5612 30.696V30.552C28.5612 28.968 28.0012 28.176 26.8812 28.176C25.5372 28.176 24.7292 29.016 24.4572 30.696H28.5612ZM40.5964 28.392C39.5084 28.392 38.9644 28.752 38.9644 29.472C38.9644 29.856 39.1484 30.184 39.5164 30.456C39.8844 30.728 40.3244 30.968 40.8364 31.176C41.3644 31.368 41.8844 31.592 42.3964 31.848C42.9244 32.088 43.3724 32.44 43.7404 32.904C44.1084 33.368 44.2924 33.936 44.2924 34.608C44.2924 35.808 43.8844 36.784 43.0684 37.536C42.2524 38.272 41.0524 38.64 39.4684 38.64C38.7484 38.64 37.9884 38.56 37.1884 38.4C36.4044 38.24 35.8284 38.056 35.4604 37.848L36.2764 35.448C37.5244 35.864 38.6444 36.072 39.6364 36.072C40.6444 36.072 41.1484 35.68 41.1484 34.896C41.1484 34.56 40.9644 34.256 40.5964 33.984C40.2284 33.712 39.7804 33.464 39.2524 33.24C38.7404 33 38.2204 32.744 37.6924 32.472C37.1804 32.2 36.7404 31.816 36.3724 31.32C36.0044 30.824 35.8204 30.248 35.8204 29.592C35.8204 28.36 36.2284 27.416 37.0444 26.76C37.8604 26.104 39.0284 25.776 40.5484 25.776C42.0684 25.776 43.2604 26.024 44.1244 26.52L43.3324 28.896C42.2284 28.56 41.3164 28.392 40.5964 28.392ZM51.7791 32.52C51.8111 34.92 52.8671 36.12 54.9471 36.12C55.9231 36.12 56.8911 35.936 57.8511 35.568L58.4271 37.848C57.1951 38.376 55.8271 38.64 54.3231 38.64C50.5311 38.64 48.6351 36.408 48.6351 31.944C48.6351 30.184 49.1071 28.72 50.0511 27.552C50.9951 26.384 52.3551 25.8 54.1311 25.8C55.5551 25.8 56.6511 26.184 57.4191 26.952C58.2031 27.704 58.5951 28.76 58.5951 30.12C58.5951 30.92 58.4911 31.72 58.2831 32.52H51.7791ZM55.9071 30.696V30.552C55.9071 28.968 55.3471 28.176 54.2271 28.176C52.8831 28.176 52.0751 29.016 51.8031 30.696H55.9071ZM69.6464 28.488C68.3344 28.488 67.4144 28.864 66.8864 29.616V38.328H63.5264V26.016H66.3104L66.5744 27.576C67.5024 26.36 68.6864 25.752 70.1264 25.752C70.5264 25.752 70.8944 25.792 71.2304 25.872L70.6784 28.632C70.3264 28.536 69.9824 28.488 69.6464 28.488ZM80.3013 35.64L82.8693 26.016H86.2533L82.4133 38.328H78.1893L74.4213 26.016H77.8053L80.3013 35.64Z" fill="#EB7B57"/>
<path d="M8.992 32.472V31.472H7.992V32.472H8.992ZM8.992 38.328V39.328H9.992V38.328H8.992ZM5.536 38.328H4.536V39.328H5.536V38.328ZM5.536 22.296V21.296H4.536V22.296H5.536ZM13.072 22.608L12.7945 23.5687L12.8 23.5703L13.072 22.608ZM15.016 23.688L14.3412 24.426L14.3472 24.4314L14.3532 24.4367L15.016 23.688ZM14.848 31.224L14.248 30.424L14.2398 30.4301L14.2317 30.4365L14.848 31.224ZM13.552 31.944L13.191 31.0114L11.9732 31.4828L12.7458 32.5356L13.552 31.944ZM17.656 37.536L18.1775 38.3893L19.1061 37.8217L18.4622 36.9443L17.656 37.536ZM15.064 39.12L14.2495 39.7001L14.7902 40.4593L15.5855 39.9733L15.064 39.12ZM10.312 32.448L11.1265 31.8678L10.7856 31.3892L10.2016 31.4541L10.312 32.448ZM12.304 29.424L11.7385 28.5992L11.721 28.6112L11.704 28.624L12.304 29.424ZM12.448 25.488L11.7539 26.2078L11.7602 26.2139L11.7666 26.2199L12.448 25.488ZM8.992 24.84V23.84H7.992V24.84H8.992ZM8.992 29.928H7.992V30.928H8.992V29.928ZM9.592 31.472H8.992V33.472H9.592V31.472ZM7.992 32.472V38.328H9.992V32.472H7.992ZM8.992 37.328H5.536V39.328H8.992V37.328ZM6.536 38.328V22.296H4.536V38.328H6.536ZM5.536 23.296H10.168V21.296H5.536V23.296ZM10.168 23.296C11.3407 23.296 12.203 23.3978 12.7945 23.5687L13.3495 21.6473C12.501 21.4021 11.4273 21.296 10.168 21.296V23.296ZM12.8 23.5703C13.3874 23.7363 13.8971 24.02 14.3412 24.426L15.6908 22.9499C15.0149 22.332 14.2286 21.8957 13.344 21.6457L12.8 23.5703ZM14.3532 24.4367C15.0808 25.0809 15.48 25.9736 15.48 27.24H17.48C17.48 25.4983 16.9032 24.0231 15.6788 22.9392L14.3532 24.4367ZM15.48 27.24C15.48 28.8851 15.0017 29.8587 14.248 30.424L15.448 32.024C16.8703 30.9572 17.48 29.2749 17.48 27.24H15.48ZM14.2317 30.4365C13.951 30.6561 13.6077 30.8501 13.191 31.0114L13.913 32.8765C14.4883 32.6538 15.009 32.3678 15.4643 32.0115L14.2317 30.4365ZM12.7458 32.5356L16.8498 38.1276L18.4622 36.9443L14.3582 31.3523L12.7458 32.5356ZM17.1346 36.6827L14.5426 38.2667L15.5855 39.9733L18.1775 38.3893L17.1346 36.6827ZM15.8785 38.5398L11.1265 31.8678L9.49748 33.0281L14.2495 39.7001L15.8785 38.5398ZM10.2016 31.4541C10.1176 31.4634 9.92633 31.472 9.592 31.472V33.472C9.92967 33.472 10.2184 33.4645 10.4224 33.4419L10.2016 31.4541ZM12.8695 30.2487C13.7852 29.6208 14.144 28.6131 14.144 27.504H12.144C12.144 28.1868 11.9428 28.4592 11.7385 28.5992L12.8695 30.2487ZM14.144 27.504C14.144 26.438 13.8722 25.4476 13.1294 24.7561L11.7666 26.2199C11.9518 26.3923 12.144 26.7459 12.144 27.504H14.144ZM13.1421 24.7681C12.7336 24.3742 12.1861 24.1551 11.627 24.0272C11.0558 23.8965 10.3785 23.84 9.616 23.84V25.84C10.2935 25.84 10.8082 25.8915 11.181 25.9768C11.5659 26.0649 11.7144 26.1697 11.7539 26.2078L13.1421 24.7681ZM9.616 23.84H8.992V25.84H9.616V23.84ZM7.992 24.84V29.928H9.992V24.84H7.992ZM8.992 30.928H9.256V28.928H8.992V30.928ZM9.256 30.928C10.0769 30.928 10.7867 30.8849 11.3691 30.7886C11.9236 30.6969 12.484 30.539 12.904 30.224L11.704 28.624C11.7042 28.6238 11.7013 28.626 11.6945 28.6301C11.6877 28.6343 11.6775 28.64 11.6634 28.6471C11.6347 28.6614 11.5932 28.6792 11.536 28.6989C11.4199 28.7389 11.2585 28.7797 11.0429 28.8154C10.6093 28.8871 10.0191 28.928 9.256 28.928V30.928ZM24.4332 32.52V31.52H23.4198L23.4333 32.5333L24.4332 32.52ZM30.5052 35.568L31.4747 35.323L31.1989 34.2311L30.1473 34.6342L30.5052 35.568ZM31.0812 37.848L31.4751 38.7671L32.2598 38.4308L32.0507 37.603L31.0812 37.848ZM22.7052 27.552L21.9274 26.9234L21.9274 26.9234L22.7052 27.552ZM30.0732 26.952L29.3661 27.6591L29.3734 27.6664L29.381 27.6737L30.0732 26.952ZM30.9372 32.52V33.52H31.7104L31.905 32.7716L30.9372 32.52ZM28.5612 30.696V31.696H29.5612V30.696H28.5612ZM24.4572 30.696L23.47 30.5361L23.2823 31.696H24.4572V30.696ZM23.4333 32.5333C23.4509 33.8563 23.7504 35.0305 24.4985 35.8806C25.2697 36.757 26.3659 37.12 27.6012 37.12V35.12C26.7565 35.12 26.2847 34.883 25.9999 34.5593C25.692 34.2095 25.4475 33.5837 25.4331 32.5066L23.4333 32.5333ZM27.6012 37.12C28.706 37.12 29.795 36.9111 30.8631 36.5017L30.1473 34.6342C29.2953 34.9608 28.4484 35.12 27.6012 35.12V37.12ZM29.5356 35.8129L30.1116 38.0929L32.0507 37.603L31.4747 35.323L29.5356 35.8129ZM30.6873 36.9288C29.5941 37.3973 28.3623 37.64 26.9772 37.64V39.64C28.6001 39.64 30.1043 39.3546 31.4751 38.7671L30.6873 36.9288ZM26.9772 37.64C25.2819 37.64 24.1785 37.1487 23.4733 36.3186C22.7416 35.4572 22.2892 34.0581 22.2892 31.944H20.2892C20.2892 34.2939 20.7848 36.2428 21.949 37.6134C23.1399 39.0152 24.8805 39.64 26.9772 39.64V37.64ZM22.2892 31.944C22.2892 30.3716 22.7066 29.1411 23.4829 28.1806L21.9274 26.9234C20.8157 28.2989 20.2892 29.9963 20.2892 31.944H22.2892ZM23.4829 28.1806C24.2015 27.2914 25.2498 26.8 26.7852 26.8V24.8C24.7686 24.8 23.0968 25.4765 21.9274 26.9234L23.4829 28.1806ZM26.7852 26.8C28.0297 26.8 28.8386 27.1316 29.3661 27.6591L30.7803 26.2449C29.7718 25.2363 28.3887 24.8 26.7852 24.8V26.8ZM29.381 27.6737C29.9213 28.1919 30.2492 28.9595 30.2492 30.12H32.2492C32.2492 28.5605 31.7931 27.216 30.7654 26.2303L29.381 27.6737ZM30.2492 30.12C30.2492 30.8323 30.1567 31.5478 29.9694 32.2683L31.905 32.7716C32.1337 31.8922 32.2492 31.0077 32.2492 30.12H30.2492ZM30.9372 31.52H24.4332V33.52H30.9372V31.52ZM29.5612 30.696V30.552H27.5612V30.696H29.5612ZM29.5612 30.552C29.5612 29.6726 29.4112 28.8341 28.9577 28.1926C28.4592 27.4877 27.7081 27.176 26.8812 27.176V29.176C27.1743 29.176 27.2631 29.2603 27.3247 29.3473C27.4311 29.4979 27.5612 29.8474 27.5612 30.552H29.5612ZM26.8812 27.176C25.9826 27.176 25.1683 27.4663 24.5465 28.1127C23.9503 28.7325 23.6243 29.5833 23.47 30.5361L25.4443 30.8558C25.5621 30.1286 25.7761 29.7194 25.9879 29.4992C26.174 29.3057 26.4357 29.176 26.8812 29.176V27.176ZM24.4572 31.696H28.5612V29.696H24.4572V31.696ZM39.5164 30.456L38.922 31.2601L38.922 31.2601L39.5164 30.456ZM40.8364 31.176L40.4601 32.1024L40.4773 32.1094L40.4947 32.1158L40.8364 31.176ZM42.3964 31.848L41.9492 32.7424L41.9658 32.7507L41.9826 32.7583L42.3964 31.848ZM43.7404 32.904L42.9569 33.5254L42.9569 33.5254L43.7404 32.904ZM43.0684 37.536L43.7382 38.2786L43.7461 38.2713L43.0684 37.536ZM37.1884 38.4L36.9885 39.3798L36.9923 39.3806L37.1884 38.4ZM35.4604 37.848L34.5137 37.5261L34.2469 38.3107L34.9684 38.7185L35.4604 37.848ZM36.2764 35.448L36.5927 34.4993L35.6496 34.1849L35.3297 35.1261L36.2764 35.448ZM39.2524 33.24L38.828 34.1454L38.8448 34.1533L38.8619 34.1606L39.2524 33.24ZM37.6924 32.472L37.2232 33.3552L37.2345 33.3609L37.6924 32.472ZM36.3724 31.32L37.1755 30.7241L37.1755 30.7241L36.3724 31.32ZM37.0444 26.76L36.4179 25.9806L36.4179 25.9806L37.0444 26.76ZM44.1244 26.52L45.0731 26.8362L45.3318 26.06L44.6223 25.6527L44.1244 26.52ZM43.3324 28.896L43.0413 29.8526L43.9731 30.1362L44.2811 29.2122L43.3324 28.896ZM40.5964 27.392C39.9738 27.392 39.3326 27.4892 38.8206 27.828C38.2361 28.2148 37.9644 28.8175 37.9644 29.472H39.9644C39.9644 29.4186 39.974 29.4206 39.9595 29.4493C39.943 29.4821 39.9217 29.4976 39.9243 29.4959C39.9336 29.4898 39.9816 29.4616 40.0978 29.436C40.2136 29.4105 40.3764 29.392 40.5964 29.392V27.392ZM37.9644 29.472C37.9644 30.2361 38.3542 30.8404 38.922 31.2601L40.1108 29.6518C40.0165 29.5821 39.984 29.5335 39.9746 29.5167C39.9682 29.5054 39.9644 29.4964 39.9644 29.472H37.9644ZM38.922 31.2601C39.3695 31.5909 39.886 31.8692 40.4601 32.1024L41.2128 30.2495C40.7629 30.0667 40.3994 29.8651 40.1108 29.6518L38.922 31.2601ZM40.4947 32.1158C40.986 32.2944 41.4708 32.5032 41.9492 32.7424L42.8437 30.9535C42.298 30.6807 41.7428 30.4415 41.1782 30.2362L40.4947 32.1158ZM41.9826 32.7583C42.3631 32.9313 42.6854 33.1829 42.9569 33.5254L44.5239 32.2826C44.0595 31.697 43.4858 31.2447 42.8102 30.9376L41.9826 32.7583ZM42.9569 33.5254C43.1661 33.789 43.2924 34.1296 43.2924 34.608H45.2924C45.2924 33.7424 45.0508 32.9469 44.5239 32.2826L42.9569 33.5254ZM43.2924 34.608C43.2924 35.554 42.9833 36.2545 42.3908 36.8006L43.7461 38.2713C44.7856 37.3134 45.2924 36.0619 45.2924 34.608H43.2924ZM42.3987 36.7934C41.8333 37.3034 40.913 37.64 39.4684 37.64V39.64C41.1919 39.64 42.6716 39.2406 43.7382 38.2785L42.3987 36.7934ZM39.4684 37.64C38.8223 37.64 38.1284 37.5682 37.3846 37.4194L36.9923 39.3806C37.8485 39.5518 38.6746 39.64 39.4684 39.64V37.64ZM37.3884 37.4202C36.6326 37.2659 36.1811 37.1066 35.9525 36.9774L34.9684 38.7185C35.4758 39.0053 36.1763 39.214 36.9885 39.3798L37.3884 37.4202ZM36.4072 38.1699L37.2232 35.7699L35.3297 35.1261L34.5137 37.5261L36.4072 38.1699ZM35.9602 36.3967C37.279 36.8362 38.5084 37.072 39.6364 37.072V35.072C38.7805 35.072 37.7699 34.8917 36.5927 34.4993L35.9602 36.3967ZM39.6364 37.072C40.2425 37.072 40.881 36.9588 41.3844 36.5673C41.9355 36.1387 42.1484 35.5186 42.1484 34.896H40.1484C40.1484 34.9863 40.1339 35.0187 40.1348 35.0166C40.1383 35.0084 40.1487 34.9947 40.1565 34.9886C40.1592 34.9865 40.1328 35.0082 40.047 35.0305C39.9597 35.0531 39.8269 35.072 39.6364 35.072V37.072ZM42.1484 34.896C42.1484 34.1365 41.7143 33.5667 41.1908 33.1798L40.002 34.7881C40.11 34.868 40.1468 34.9204 40.1549 34.9338C40.1583 34.9393 40.1558 34.9366 40.1529 34.9263C40.1498 34.9156 40.1484 34.9046 40.1484 34.896H42.1484ZM41.1908 33.1798C40.7461 32.8511 40.2259 32.5667 39.643 32.3194L38.8619 34.1606C39.335 34.3612 39.7107 34.5728 40.002 34.7881L41.1908 33.1798ZM39.6769 32.3345C39.1767 32.1001 38.6679 31.8496 38.1504 31.583L37.2345 33.3609C37.773 33.6384 38.3042 33.8999 38.828 34.1454L39.6769 32.3345ZM38.1616 31.5889C37.7894 31.3911 37.4609 31.1087 37.1755 30.7241L35.5693 31.9158C36.02 32.5232 36.5715 33.0088 37.2233 33.3551L38.1616 31.5889ZM37.1755 30.7241C36.9436 30.4115 36.8204 30.0476 36.8204 29.592H34.8204C34.8204 30.4484 35.0653 31.2364 35.5693 31.9158L37.1755 30.7241ZM36.8204 29.592C36.8204 28.6031 37.1341 27.971 37.671 27.5393L36.4179 25.9806C35.3228 26.861 34.8204 28.1168 34.8204 29.592H36.8204ZM37.671 27.5393C38.2446 27.0782 39.1564 26.776 40.5484 26.776V24.776C38.9005 24.776 37.4763 25.1297 36.4179 25.9806L37.671 27.5393ZM40.5484 26.776C41.9782 26.776 42.9735 27.0123 43.6266 27.3872L44.6223 25.6527C43.5474 25.0356 42.1587 24.776 40.5484 24.776V26.776ZM43.1758 26.2037L42.3838 28.5797L44.2811 29.2122L45.0731 26.8362L43.1758 26.2037ZM43.6236 27.9393C42.4748 27.5897 41.4562 27.392 40.5964 27.392V29.392C41.1767 29.392 41.9821 29.5303 43.0413 29.8526L43.6236 27.9393ZM51.7791 32.52V31.52H50.7657L50.7792 32.5333L51.7791 32.52ZM57.8511 35.568L58.8207 35.323L58.5448 34.2311L57.4932 34.6342L57.8511 35.568ZM58.4271 37.848L58.821 38.7671L59.6058 38.4308L59.3967 37.603L58.4271 37.848ZM50.0511 27.552L49.2734 26.9234L49.2734 26.9234L50.0511 27.552ZM57.4191 26.952L56.712 27.6591L56.7194 27.6664L56.7269 27.6737L57.4191 26.952ZM58.2831 32.52V33.52H59.0564L59.2509 32.7716L58.2831 32.52ZM55.9071 30.696V31.696H56.9071V30.696H55.9071ZM51.8031 30.696L50.816 30.5361L50.6282 31.696H51.8031V30.696ZM50.7792 32.5333C50.7969 33.8563 51.0963 35.0305 51.8444 35.8806C52.6156 36.757 53.7118 37.12 54.9471 37.12V35.12C54.1024 35.12 53.6306 34.883 53.3458 34.5593C53.0379 34.2095 52.7934 33.5837 52.779 32.5066L50.7792 32.5333ZM54.9471 37.12C56.0519 37.12 57.141 36.9111 58.2091 36.5017L57.4932 34.6342C56.6413 34.9608 55.7943 35.12 54.9471 35.12V37.12ZM56.8816 35.8129L57.4576 38.0929L59.3967 37.603L58.8207 35.323L56.8816 35.8129ZM58.0332 36.9288C56.94 37.3973 55.7082 37.64 54.3231 37.64V39.64C55.946 39.64 57.4502 39.3546 58.821 38.7671L58.0332 36.9288ZM54.3231 37.64C52.6278 37.64 51.5245 37.1487 50.8193 36.3186C50.0875 35.4572 49.6351 34.0581 49.6351 31.944H47.6351C47.6351 34.2939 48.1307 36.2428 49.295 37.6134C50.4858 39.0152 52.2264 39.64 54.3231 39.64V37.64ZM49.6351 31.944C49.6351 30.3716 50.0526 29.1411 50.8289 28.1806L49.2734 26.9234C48.1617 28.2989 47.6351 29.9963 47.6351 31.944H49.6351ZM50.8289 28.1806C51.5475 27.2914 52.5957 26.8 54.1311 26.8V24.8C52.1145 24.8 50.4428 25.4765 49.2734 26.9234L50.8289 28.1806ZM54.1311 26.8C55.3757 26.8 56.1845 27.1316 56.712 27.6591L58.1262 26.2449C57.1177 25.2363 55.7346 24.8 54.1311 24.8V26.8ZM56.7269 27.6737C57.2672 28.1919 57.5951 28.9595 57.5951 30.12H59.5951C59.5951 28.5605 59.139 27.216 58.1114 26.2303L56.7269 27.6737ZM57.5951 30.12C57.5951 30.8323 57.5027 31.5478 57.3153 32.2683L59.2509 32.7716C59.4796 31.8922 59.5951 31.0077 59.5951 30.12H57.5951ZM58.2831 31.52H51.7791V33.52H58.2831V31.52ZM56.9071 30.696V30.552H54.9071V30.696H56.9071ZM56.9071 30.552C56.9071 29.6726 56.7572 28.8341 56.3036 28.1926C55.8052 27.4877 55.054 27.176 54.2271 27.176V29.176C54.5202 29.176 54.6091 29.2603 54.6706 29.3473C54.7771 29.4979 54.9071 29.8474 54.9071 30.552H56.9071ZM54.2271 27.176C53.3286 27.176 52.5143 27.4663 51.8924 28.1127C51.2962 28.7325 50.9702 29.5833 50.816 30.5361L52.7903 30.8558C52.908 30.1286 53.122 29.7194 53.3338 29.4992C53.52 29.3057 53.7817 29.176 54.2271 29.176V27.176ZM51.8031 31.696H55.9071V29.696H51.8031V31.696ZM66.8864 29.616L66.068 29.0413L65.8864 29.3V29.616H66.8864ZM66.8864 38.328V39.328H67.8864V38.328H66.8864ZM63.5264 38.328H62.5264V39.328H63.5264V38.328ZM63.5264 26.016V25.016H62.5264V26.016H63.5264ZM66.3104 26.016L67.2964 25.8491L67.1554 25.016H66.3104V26.016ZM66.5744 27.576L65.5884 27.7428L65.9726 30.0129L67.3693 28.1826L66.5744 27.576ZM71.2304 25.872L72.211 26.0681L72.4001 25.1225L71.462 24.8992L71.2304 25.872ZM70.6784 28.632L70.4153 29.5967L71.4488 29.8786L71.659 28.8281L70.6784 28.632ZM69.6464 27.488C68.1577 27.488 66.855 27.9204 66.068 29.0413L67.7048 30.1906C67.9737 29.8076 68.5111 29.488 69.6464 29.488V27.488ZM65.8864 29.616V38.328H67.8864V29.616H65.8864ZM66.8864 37.328H63.5264V39.328H66.8864V37.328ZM64.5264 38.328V26.016H62.5264V38.328H64.5264ZM63.5264 27.016H66.3104V25.016H63.5264V27.016ZM65.3244 26.1828L65.5884 27.7428L67.5604 27.4091L67.2964 25.8491L65.3244 26.1828ZM67.3693 28.1826C68.1218 27.1966 69.0201 26.752 70.1264 26.752V24.752C68.3527 24.752 66.8829 25.5234 65.7794 26.9693L67.3693 28.1826ZM70.1264 26.752C70.4603 26.752 70.7495 26.7854 70.9988 26.8448L71.462 24.8992C71.0393 24.7985 70.5924 24.752 70.1264 24.752V26.752ZM70.2498 25.6759L69.6978 28.4359L71.659 28.8281L72.211 26.0681L70.2498 25.6759ZM70.9415 27.6672C70.511 27.5498 70.0785 27.488 69.6464 27.488V29.488C69.8862 29.488 70.1417 29.5221 70.4153 29.5967L70.9415 27.6672ZM80.3013 35.64L79.3333 35.891L80.2875 39.5703L81.2674 35.8978L80.3013 35.64ZM82.8693 26.016V25.016H82.1011L81.9031 25.7582L82.8693 26.016ZM86.2533 26.016L87.2079 26.3137L87.6127 25.016H86.2533V26.016ZM82.4133 38.328V39.328H83.1489L83.3679 38.6257L82.4133 38.328ZM78.1893 38.328L77.233 38.6206L77.4495 39.328H78.1893V38.328ZM74.4213 26.016V25.016H73.0694L73.465 26.3086L74.4213 26.016ZM77.8053 26.016L78.7732 25.7649L78.579 25.016H77.8053V26.016ZM81.2674 35.8978L83.8354 26.2738L81.9031 25.7582L79.3351 35.3822L81.2674 35.8978ZM82.8693 27.016H86.2533V25.016H82.8693V27.016ZM85.2986 25.7182L81.4586 38.0302L83.3679 38.6257L87.2079 26.3137L85.2986 25.7182ZM82.4133 37.328H78.1893V39.328H82.4133V37.328ZM79.1455 38.0353L75.3775 25.7233L73.465 26.3086L77.233 38.6206L79.1455 38.0353ZM74.4213 27.016H77.8053V25.016H74.4213V27.016ZM76.8373 26.267L79.3333 35.891L81.2692 35.3889L78.7732 25.7649L76.8373 26.267Z" fill="black" fill-opacity="0.86"/>
<line y1="-0.5" x2="42.8267" y2="-0.5" transform="matrix(0.999996 -0.00290448 0.0169146 0.999857 17.5825 14.923)" stroke="black"/>
<defs>
<filter id="filter0_d" x="0.980469" y="3" width="74.9106" height="28.2344" filterUnits="userSpaceOnUse" color-interpolation-filters="sRGB">
<feFlood flood-opacity="0" result="BackgroundImageFix"/>
<feColorMatrix in="SourceAlpha" type="matrix" values="0 0 0 0 0 0 0 0 0 0 0 0 0 0 0 0 0 0 127 0"/>
<feOffset dy="4"/>
<feGaussianBlur stdDeviation="2"/>
<feColorMatrix type="matrix" values="0 0 0 0 0 0 0 0 0 0 0 0 0 0 0 0 0 0 0.55 0"/>
<feBlend mode="normal" in2="BackgroundImageFix" result="effect1_dropShadow"/>
<feBlend mode="normal" in="SourceGraphic" in2="effect1_dropShadow" result="shape"/>
</filter>
</defs>
</svg>
